<svg width="65" height="64" viewBox="0 0 65 64" fill="none" xmlns="http://www.w3.org/2000/svg">
<path d="M32.6667 18.6667V56" stroke="#8B4513" stroke-width="6" stroke-linecap="round" stroke-linejoin="round"/>
<path d="M43.3333 32H48.6667" stroke="#8B4513" stroke-width="6" stroke-linecap="round" stroke-linejoin="round"/>
<path d="M43.3333 21.3333H48.6667" stroke="#8B4513" stroke-width="6" stroke-linecap="round" stroke-linejoin="round"/>
<path d="M8.66667 48C7.95943 48 7.28115 47.7191 6.78106 47.219C6.28096 46.7189 6.00001 46.0406 6.00001 45.3333V10.6667C6.00001 9.95942 6.28096 9.28115 6.78106 8.78105C7.28115 8.28095 7.95943 8 8.66667 8H22C24.829 8 27.5421 9.12381 29.5425 11.1242C31.5429 13.1246 32.6667 15.8377 32.6667 18.6667C32.6667 15.8377 33.7905 13.1246 35.7909 11.1242C37.7913 9.12381 40.5044 8 43.3333 8H56.6667C57.3739 8 58.0522 8.28095 58.5523 8.78105C59.0524 9.28115 59.3333 9.95942 59.3333 10.6667V45.3333C59.3333 46.0406 59.0524 46.7189 58.5523 47.219C58.0522 47.7191 57.3739 48 56.6667 48H40.6667C38.5449 48 36.5101 48.8429 35.0098 50.3431C33.5095 51.8434 32.6667 53.8783 32.6667 56C32.6667 53.8783 31.8238 51.8434 30.3235 50.3431C28.8232 48.8429 26.7884 48 24.6667 48H8.66667Z" stroke="#8B4513" stroke-width="6" stroke-linecap="round" stroke-linejoin="round"/>
<path d="M16.6667 32H22" stroke="#8B4513" stroke-width="6" stroke-linecap="round" stroke-linejoin="round"/>
<path d="M16.6667 21.3333H22" stroke="#8B4513" stroke-width="6" stroke-linecap="round" stroke-linejoin="round"/>
</svg>
