<svg width="65" height="64" viewBox="0 0 65 64" fill="none" xmlns="http://www.w3.org/2000/svg">
<path d="M53.6666 56V34.6666C53.6666 33.2522 53.1047 31.8956 52.1045 30.8954C51.1043 29.8952 49.7478 29.3333 48.3333 29.3333H16.3333C14.9188 29.3333 13.5622 29.8952 12.562 30.8954C11.5618 31.8956 10.9999 33.2522 10.9999 34.6666V56" stroke="#8B4513" stroke-width="6" stroke-linecap="round" stroke-linejoin="round"/>
<path d="M10.9999 42.6667C10.9999 42.6667 12.3333 40 16.3333 40C20.3333 40 22.9999 45.3333 26.9999 45.3333C30.9999 45.3333 33.6666 40 37.6666 40C41.6666 40 44.3333 45.3333 48.3333 45.3333C52.3333 45.3333 53.6666 42.6667 53.6666 42.6667" stroke="#8B4513" stroke-width="6" stroke-linecap="round" stroke-linejoin="round"/>
<path d="M5.66656 56H58.9999" stroke="#8B4513" stroke-width="6" stroke-linecap="round" stroke-linejoin="round"/>
<path d="M18.9999 21.3333V29.3333" stroke="#8B4513" stroke-width="6" stroke-linecap="round" stroke-linejoin="round"/>
<path d="M32.3333 21.3333V29.3333" stroke="#8B4513" stroke-width="6" stroke-linecap="round" stroke-linejoin="round"/>
<path d="M45.6666 21.3333V29.3333" stroke="#8B4513" stroke-width="6" stroke-linecap="round" stroke-linejoin="round"/>
<path d="M18.9999 10.6667H19.0266" stroke="#8B4513" stroke-width="6" stroke-linecap="round" stroke-linejoin="round"/>
<path d="M32.3333 10.6667H32.3599" stroke="#8B4513" stroke-width="6" stroke-linecap="round" stroke-linejoin="round"/>
<path d="M45.6666 10.6667H45.6932" stroke="#8B4513" stroke-width="6" stroke-linecap="round" stroke-linejoin="round"/>
</svg>
