<svg width="16" height="17" viewBox="0 0 16 17" fill="none" xmlns="http://www.w3.org/2000/svg">
<g clip-path="url(#clip0_145_85)">
<path d="M1.58424 8.03599C2.04824 6.46799 2.91224 4.83599 4.36824 4.00399C4.84824 3.73199 5.36024 3.57199 5.90424 3.50799C6.14424 3.44399 6.38424 3.39599 6.62424 3.34799C9.08824 2.97999 12.1922 4.06799 13.0722 6.57999C13.2322 6.91599 13.3442 7.26799 13.4242 7.61999C14.0642 10.372 13.1362 13.78 10.4002 15.028C10.3042 15.076 10.1922 15.108 10.0802 15.124C8.03224 16.148 5.56824 15.892 3.79224 14.452C2.86424 13.684 1.87224 12.596 1.56824 11.412C1.53624 11.268 1.50424 11.124 1.48824 10.98C1.24824 10.02 1.28024 8.99599 1.58424 8.03599ZM3.98424 11.828C4.67224 12.708 5.50424 13.476 6.60824 13.732C7.61624 13.94 8.68824 13.748 9.55224 13.204C9.66424 13.124 9.80824 13.076 9.93624 13.06C11.6162 11.892 12.0962 9.36399 11.3122 7.49199C10.8802 6.45199 9.96824 5.87599 8.89624 5.66799C7.82424 5.45999 6.27224 5.52399 5.26424 6.00399C4.32024 6.45199 3.92024 7.53999 3.68024 8.51599C3.39224 9.69999 3.20024 10.82 3.98424 11.828Z" fill="#F15A22"/>
<path d="M3.19964 8.70799C3.45564 7.90799 3.88764 7.17199 4.43164 6.54799C5.02364 5.87599 5.80764 5.39599 6.68764 5.20399C6.75164 5.18799 6.81564 5.15599 6.87964 5.13999C7.51964 5.07599 8.17564 5.17199 8.78364 5.37999C9.51964 5.66799 10.1756 6.14799 10.8956 6.46799C10.9276 6.48399 10.9436 6.48399 10.9756 6.48399C11.0716 6.54799 11.1516 6.61199 11.2476 6.69199C11.3116 6.77199 11.3916 6.85199 11.4556 6.91599C11.4716 6.93199 11.5036 6.94799 11.5356 6.94799C11.6316 7.04399 11.7116 7.15599 11.7916 7.26799C12.0636 7.93999 12.1436 8.65999 12.0156 9.36399C12.1916 11.012 11.4236 12.612 9.99964 13.492C8.47964 14.436 6.41564 14.276 4.92764 13.364C3.29564 12.356 2.59164 10.548 3.19964 8.70799ZM7.75964 10.148C7.83964 9.97199 7.88764 9.77999 7.87164 9.58799C7.82364 9.44399 7.87164 9.52399 7.80764 9.49199C7.71164 9.44399 7.31164 9.47599 7.24764 9.53999C7.07164 9.74799 7.42364 10.068 7.75964 10.148Z" fill="#EFE7D2"/>
<path d="M11.2156 2.868C10.7996 2.868 10.3836 2.436 10.6396 1.956C10.8796 1.524 11.1036 0.884003 11.6796 0.884003C12.2396 0.900003 12.7196 1.332 13.1356 1.636C13.5356 1.94 14.1596 2.244 14.3036 2.74C14.3996 3.012 14.3356 3.316 14.1436 3.54C14.0956 3.668 14.0156 3.764 13.9196 3.86C13.7436 4.244 13.1996 4.42 12.9116 4.036C12.8476 4.004 12.7996 3.972 12.7516 3.924C12.7036 3.956 12.6716 3.988 12.6556 4.004C12.6076 4.052 12.5436 4.084 12.4956 4.132L12.1596 4.692C11.7596 5.348 10.7036 4.756 11.1196 4.084C11.1996 3.956 11.2796 3.828 11.3596 3.7C11.3756 3.572 11.4236 3.46 11.5036 3.364L11.5836 3.268C11.4236 3.172 11.3116 3.044 11.2156 2.868Z" fill="#7B78CC"/>
<path d="M5.53632 2.38799C5.80832 2.16399 6.19232 2.09999 6.51232 2.22799C6.84832 2.37199 7.08832 2.69199 7.10432 3.05999C7.13632 3.37999 6.80032 3.68399 6.49632 3.66799C6.46432 3.66799 6.44832 3.66799 6.41632 3.65199C6.35232 3.77999 6.22432 3.87599 6.08032 3.90799C5.87232 3.95599 5.66432 3.92399 5.47232 3.81199C5.31232 3.69999 5.18432 3.53999 5.13632 3.34799C5.07232 2.99599 5.23232 2.61199 5.53632 2.38799Z" fill="#7B78CC"/>
<path d="M13.7919 7.76401C14.1119 7.68401 14.4479 7.87601 14.5279 8.18001L14.7679 8.91601C14.8479 9.23601 14.6719 9.57201 14.3519 9.66801C14.0319 9.74801 13.6959 9.55601 13.6159 9.25201L13.3759 8.51601C13.2959 8.18001 13.4719 7.84401 13.7919 7.76401Z" fill="#7B78CC"/>
<path d="M11.4563 6.116C11.5683 6.244 11.6643 6.388 11.7763 6.516C11.8563 6.516 11.9363 6.548 11.9683 6.612C12.3363 7.14 12.6083 7.732 12.8163 8.34C12.9123 8.628 12.4803 8.724 12.3843 8.468C12.3843 8.452 12.3683 8.436 12.3683 8.42C12.2723 8.42 12.1923 8.356 12.1603 8.276C12.0323 7.972 11.9043 7.684 11.7443 7.396C11.6003 7.14 11.4563 6.9 11.2963 6.66C11.1843 6.628 11.1203 6.516 11.1363 6.404C11.1363 6.388 11.1203 6.388 11.1203 6.372C10.9603 6.18 11.2963 5.908 11.4563 6.116Z" fill="#F15A22"/>
<path d="M6.83197 9.476C6.83197 9.348 6.86397 9.22 6.95997 9.124C7.10397 8.996 7.29597 8.964 7.45597 9.028C7.58397 9.044 7.71197 9.092 7.82397 9.172C7.95197 9.236 8.04797 9.348 8.09597 9.476C8.20797 9.732 8.07997 10.036 7.82397 10.148C7.71197 10.196 7.58397 10.196 7.45597 10.164C7.32797 10.164 7.18397 10.116 7.07197 10.036C6.91197 9.924 6.79997 9.7 6.83197 9.476Z" fill="#7B78CC"/>
<path d="M5.39218 3.796C5.32818 3.572 5.28018 3.38 5.23218 3.172C5.21618 3.124 5.21618 3.06 5.21618 3.012C5.21618 2.948 5.23218 2.884 5.26418 2.836C5.29618 2.772 5.34418 2.724 5.39218 2.692C5.42418 2.676 5.47218 2.66 5.50418 2.644C5.72818 2.548 5.96818 2.484 6.19218 2.436C6.30418 2.404 6.41618 2.404 6.54418 2.388C6.64018 2.388 6.72018 2.404 6.81618 2.42C6.91218 2.452 7.00818 2.5 7.07218 2.564C7.18418 2.66 7.26418 2.804 7.31218 2.948C7.34418 3.076 7.36018 3.204 7.36018 3.348C7.36018 3.38 7.36018 3.412 7.36018 3.444C7.39218 3.444 7.42418 3.444 7.45618 3.444C8.59218 3.444 9.69618 3.748 10.6722 4.324C10.8802 3.988 11.0882 3.668 11.2962 3.348C11.1682 3.252 11.0402 3.156 10.9282 3.044C10.8802 2.996 10.8322 2.932 10.7842 2.868C10.7362 2.788 10.7042 2.692 10.7042 2.612C10.7042 2.58 10.7042 2.564 10.7042 2.532C10.7202 2.452 10.7522 2.372 10.8002 2.308C11.0402 1.94 11.3122 1.604 11.6322 1.316C11.6642 1.284 11.6962 1.268 11.7282 1.236C11.7762 1.204 11.8402 1.172 11.9042 1.172H11.9362C12.0002 1.172 12.0482 1.188 12.1122 1.204C12.1442 1.22 12.1762 1.236 12.2082 1.252C12.7522 1.588 13.2802 1.94 13.7922 2.324C13.9522 2.436 14.1122 2.564 14.2562 2.692C14.4322 2.852 14.5602 3.044 14.6242 3.268C14.6402 3.316 14.6402 3.38 14.6402 3.428C14.6402 3.524 14.6242 3.636 14.5762 3.716C14.5282 3.844 14.4482 3.956 14.3682 4.052C14.2882 4.148 14.2082 4.228 14.1602 4.308C14.0802 4.42 13.9842 4.5 13.8562 4.564C13.7762 4.612 13.6802 4.628 13.5682 4.628C13.4402 4.628 13.3122 4.596 13.2002 4.548C13.1042 4.5 13.0082 4.452 12.9122 4.388L12.7362 4.276L11.8562 5.268C12.6402 6.036 13.2002 7.012 13.4882 8.084C13.6962 7.988 13.9202 7.94 14.1602 7.94H14.1922C14.2562 7.94 14.3362 7.956 14.4002 7.988C14.4802 8.02 14.5282 8.068 14.5602 8.132C14.5762 8.164 14.5922 8.212 14.6082 8.26C14.7042 8.532 14.7682 8.82 14.7842 9.124C14.7842 9.268 14.7522 9.428 14.7042 9.572C14.6882 9.636 14.6402 9.7 14.5922 9.748C14.5602 9.78 14.5122 9.812 14.4642 9.828C14.4322 9.844 14.4002 9.844 14.3682 9.86C14.1442 9.924 13.9202 9.924 13.6802 9.876C13.6162 11.268 13.1202 12.596 12.2402 13.684C11.3442 14.836 10.0802 15.636 8.67218 15.972C8.24018 16.068 7.80818 16.116 7.37618 16.116C6.08018 16.116 4.81618 15.716 3.76018 14.964C2.65618 14.196 1.84018 13.076 1.44018 11.78C1.26418 11.188 1.16818 10.564 1.16818 9.94C1.16818 8.596 1.60018 7.284 2.36818 6.18C3.12018 5.092 4.17618 4.26 5.39218 3.796ZM6.89618 3.46C6.89618 3.428 6.89618 3.38 6.89618 3.348C6.89618 3.252 6.89618 3.156 6.86418 3.076C6.84818 3.012 6.81618 2.964 6.76818 2.916C6.73618 2.9 6.70418 2.884 6.67218 2.868C6.62418 2.852 6.57618 2.852 6.52818 2.852C6.44818 2.852 6.35218 2.868 6.27218 2.884C6.06418 2.932 5.85618 2.996 5.64818 3.06C5.69618 3.252 5.74418 3.46 5.79218 3.652C6.17618 3.572 6.52818 3.492 6.89618 3.46ZM13.1842 4.004C13.2642 4.052 13.3282 4.1 13.4082 4.132C13.4722 4.164 13.5362 4.18 13.6002 4.18C13.6322 4.18 13.6642 4.18 13.6802 4.164C13.7442 4.132 13.7922 4.084 13.8242 4.02C13.9202 3.908 14.0162 3.796 14.0962 3.7C14.1282 3.652 14.1602 3.604 14.1762 3.556C14.1922 3.524 14.2082 3.476 14.2082 3.444C14.2082 3.428 14.2082 3.412 14.2082 3.396C14.1602 3.252 14.0802 3.14 13.9682 3.044C13.8402 2.916 13.6962 2.804 13.5522 2.708C13.0402 2.34 12.5282 1.988 12.0002 1.668C11.9842 1.668 11.9842 1.652 11.9682 1.652L11.9522 1.668C11.6642 1.94 11.4082 2.244 11.2002 2.564C11.1842 2.58 11.1842 2.596 11.1682 2.612V2.628C11.1682 2.644 11.1842 2.66 11.1842 2.66C11.2002 2.692 11.2162 2.708 11.2482 2.74C11.4402 2.916 11.6642 3.076 11.9042 3.22L13.1842 4.004ZM11.6642 3.588L11.0402 4.564C11.1202 4.612 11.1842 4.676 11.2642 4.724C11.3602 4.804 11.4562 4.884 11.5522 4.964L12.3682 4.036L11.6642 3.588ZM13.7922 9.412C13.9522 9.444 14.1122 9.444 14.2722 9.396H14.2882C14.3202 9.3 14.3362 9.204 14.3362 9.108C14.3202 8.868 14.2722 8.612 14.1762 8.388C14.0002 8.388 13.8242 8.436 13.6642 8.5C13.6482 8.5 13.6322 8.516 13.6002 8.516C13.6482 8.804 13.6802 9.108 13.6962 9.396C13.7282 9.412 13.7602 9.412 13.7922 9.412ZM1.90418 11.62C2.27218 12.82 3.02418 13.844 4.06418 14.564C5.04018 15.252 6.22418 15.636 7.42418 15.636C7.82418 15.636 8.22418 15.588 8.62418 15.508C9.93618 15.204 11.1042 14.452 11.9362 13.38C12.8002 12.308 13.2642 10.98 13.2802 9.604C13.2802 9.156 13.2322 8.724 13.1202 8.292C12.8162 7.012 12.0642 5.86 11.0082 5.076C9.98418 4.308 8.73618 3.876 7.45618 3.876C6.83218 3.876 6.22418 3.972 5.63218 4.18C4.46418 4.596 3.47218 5.38 2.76818 6.404C2.04818 7.428 1.66418 8.66 1.64818 9.908C1.64818 10.5 1.72818 11.076 1.90418 11.62Z" fill="black"/>
<path d="M7.42439 5.07601C8.17639 5.07601 8.92839 5.23601 9.61639 5.54001C10.2724 5.82801 10.8644 6.24401 11.3444 6.78801C11.5844 7.06001 11.7764 7.36401 11.9364 7.68401C12.2244 8.24401 12.3844 8.85201 12.4004 9.47601C12.4004 9.52401 12.4004 9.55601 12.4004 9.60401C12.3844 10.628 12.0164 11.62 11.3764 12.404C10.7684 13.188 9.95239 13.78 9.00839 14.132C8.43239 14.34 7.80839 14.452 7.18439 14.452C6.49639 14.452 5.80839 14.308 5.16839 14.036C4.48039 13.732 3.90439 13.252 3.47239 12.628C2.96039 11.876 2.68839 10.964 2.68839 10.052C2.68839 8.66001 3.24839 7.31601 4.24039 6.34001C5.10439 5.50801 6.24039 5.06001 7.42439 5.07601ZM3.87239 12.356C4.25639 12.9 4.76839 13.332 5.37639 13.604C5.95239 13.86 6.57639 13.988 7.21639 13.988C7.77639 13.988 8.35239 13.892 8.88039 13.7C9.72839 13.38 10.4804 12.836 11.0404 12.116C11.6164 11.396 11.9524 10.516 11.9684 9.58801C11.9684 9.55601 11.9684 9.52401 11.9684 9.47601C11.9524 8.91601 11.8084 8.37201 11.5524 7.87601C11.4084 7.58801 11.2324 7.31601 11.0244 7.07601C10.5924 6.59601 10.0484 6.19601 9.45639 5.94001C8.81639 5.66801 8.14439 5.50801 7.45639 5.50801C6.40039 5.49201 5.37639 5.89201 4.60839 6.62801C3.71239 7.52401 3.20039 8.75601 3.20039 10.02C3.16839 10.852 3.40839 11.668 3.87239 12.356Z" fill="black"/>
<path d="M6.12756 6.29199C6.25556 6.25999 6.36756 6.33999 6.39956 6.45199C6.55956 7.05999 6.76756 7.65199 7.00756 8.22799C7.07156 8.38799 7.13556 8.54799 7.19956 8.69199C7.23156 8.67599 7.27956 8.67599 7.32756 8.67599H7.35956C7.48756 8.69199 7.61556 8.73999 7.72756 8.81999C7.88756 8.93199 8.01556 9.07599 8.11156 9.25199C8.14356 9.31599 8.17556 9.39599 8.19156 9.47599C8.75156 9.26799 9.32756 9.10799 9.90356 8.97999C10.0316 8.94799 10.1436 9.02799 10.1756 9.15599C10.2076 9.28399 10.1276 9.39599 9.99956 9.42799C9.42356 9.55599 8.86356 9.73199 8.31956 9.92399C8.28756 9.93999 8.27156 9.93999 8.23956 9.93999C8.23956 9.97199 8.23956 9.98799 8.22356 10.02C8.19156 10.148 8.14356 10.276 8.04756 10.388C7.95156 10.484 7.83956 10.564 7.72756 10.612C7.63156 10.644 7.53556 10.66 7.43956 10.66C7.27956 10.66 7.13556 10.628 6.99156 10.548C6.83156 10.468 6.70356 10.34 6.60756 10.18C6.51156 10.02 6.46356 9.84399 6.46356 9.66799C6.46356 9.65199 6.46356 9.61999 6.46356 9.60399C6.47956 9.42799 6.54356 9.25199 6.63956 9.10799C6.68756 9.04399 6.73556 8.99599 6.79956 8.93199L6.60756 8.41999C6.35156 7.82799 6.14356 7.20399 5.98356 6.57999C5.93556 6.45199 5.99956 6.32399 6.12756 6.29199ZM6.97556 9.90799C7.02356 9.98799 7.10356 10.068 7.18356 10.116C7.26356 10.148 7.34356 10.18 7.42356 10.18C7.47156 10.18 7.51956 10.18 7.55156 10.164C7.59956 10.148 7.64756 10.116 7.69556 10.068C7.72756 10.036 7.75956 9.98799 7.75956 9.92399L7.99956 9.95599L7.77556 9.90799C7.77556 9.87599 7.79156 9.82799 7.79156 9.79599C7.79156 9.68399 7.75956 9.55599 7.71156 9.45999C7.66356 9.34799 7.58356 9.26799 7.48756 9.20399C7.45556 9.17199 7.40756 9.15599 7.37556 9.15599C7.35956 9.28399 7.26356 9.37999 7.13556 9.36399C7.10356 9.36399 7.07156 9.34799 7.03956 9.33199C7.03956 9.33199 7.03956 9.34799 7.02356 9.34799C6.97556 9.42799 6.92756 9.50799 6.92756 9.60399V9.63599C6.89556 9.73199 6.92756 9.82799 6.97556 9.90799Z" fill="black"/>
</g>
<defs>
<clipPath id="clip0_145_85">
<rect width="16" height="16" fill="white" transform="matrix(-1 0 0 1 16 0.5)"/>
</clipPath>
</defs>
</svg>
